<svg height="104.5" width="104.5" xmlns="http://www.w3.org/2000/svg">
 <path d="m52 5c-26 0-47 21-47 47s21 47 47 47 47-21 47-47-21-47-47-47zm-0.07 4.2c1.7 0.044 3 1.4 3 3.1 0 4.1-6.2 4.1-6.2 0-7.3e-4 -1.8 1.4-3.2 3.2-3.1zm-6.78 5.1 4.58 5c1.1 1.1 2.9 1.2 4 0.09l5.4-5.1c11 2.1 21 8.9 26 19l-3.7 8.3c-0.63 1.4 0.019 3.1 1.4 3.8l7.1 3.1c0.22 2.2 0.25 4.4 0.08 6.6-0.22 7.7-1.6 12-7.3 20-1.1 1.4-2.3 2.8-3.5 4.1l-6.6-1.4c-1.5-0.33-3 0.65-3.4 2.2l-1.6 7.3c-10 4.6-22 4.5-32-0.15l-1.6-7.3c-0.33-1.5-1.8-2.5-3.4-2.2l-6.4 1.4c-1.2-1.2-2.3-2.5-3.3-3.9-2.3-3-4.6-8-6-12-1.4-4.7-1.8-9.7-1.2-15l6.7-3c1.4-0.64 2.1-2.3 1.4-3.7l-3.903-8.941c1-1.9 5.303-5.759 5.303-5.759 7.486-6.933 13.65-10.61 21.94-12.44zm-30.22 23c1.7 0.049 3 1.4 3 3.1 0 4.1-6.2 4.1-6.2 0-7.3e-4 -1.8 1.4-3.2 3.2-3.1zm74 0.14c1.7 0.049 3 1.4 3 3.1 0 4.1-6.2 4.1-6.2 0-7.3e-4 -1.8 1.4-3.2 3.2-3.1zm-60 44c1.7 0.049 3 1.4 3 3.1 0 4.1-6.2 4.1-6.2 0-7.3e-4 -1.8 1.4-3.2 3.2-3.1zm46 0.14c1.7 0.049 3 1.4 3 3.1 0 4.1-6.2 4.1-6.2 0-7.3e-4 -1.8 1.4-3.2 3.2-3.1z"/>
 <path d="m96.88 52.25a44.63 44.63 0 0 1-44.63 44.63 44.63 44.63 0 0 1-44.63-44.63 44.63 44.63 0 0 1 44.63-44.63 44.63 44.63 0 0 1 44.63 44.63zm-0.84-4.31 6.96 4.31-6.96 4.31 5.98 5.59-7.66 2.87 4.78 6.65-8.09 1.32 3.4 7.46-8.19-0.29 1.88 7.98-7.98-1.88 0.29 8.19-7.46-3.4-1.32 8.09-6.65-4.78-2.87 7.66-5.59-5.98-4.31 6.96-4.31-6.96-5.59 5.98-2.87-7.66-6.65 4.78-1.32-8.09-7.46 3.4 0.29-8.19-7.98 1.88 1.88-7.98-8.19 0.29 3.4-7.46-8.09-1.32 4.78-6.65-7.66-2.87 5.98-5.59-6.96-4.31 6.96-4.31-5.98-5.59 7.66-2.87-4.78-6.65 8.09-1.32-3.4-7.46 8.19 0.29-1.88-7.98 7.98 1.88-0.29-8.19 7.46 3.4 1.32-8.09 6.65 4.78 2.87-7.66 5.59 5.98 4.31-6.96 4.31 6.96 5.59-5.98 2.87 7.66 6.65-4.78 1.32 8.09 7.46-3.4-0.29 8.19 7.98-1.88-1.88 7.98 8.19-0.29-3.4 7.46 8.09 1.32-4.78 6.65 7.66 2.87z" fill-rule="evenodd" stroke="#000" stroke-linecap="round" stroke-linejoin="round" stroke-width="3"/>
 <rect x="34.3" y="23" width="6.2" height="6.2"/>
 <rect x="41.7" y="23" width="6.2" height="6.2"/>
 <rect x="34.3" y="30.2" width="6.2" height="6.2"/>
 <rect x="41.7" y="30.2" width="6.2" height="6.2"/>
 <path d="m40 38v30h13v5.51h17v-10.23h-6.709l-2.748-2.768h-7.543v5.49h-11v-13h11v5.51h17v-10.23h-6.709l-2.748-2.768h-7.543v5.49h-11v-13zm15 9.51h4.709l2.748 2.768h5.543v6.232h-13zm0 15h4.709l2.748 2.768h5.543v6.232h-13z"/>
</svg>
